<svg width="82" height="19" viewBox="0 0 82 19" fill="none" xmlns="http://www.w3.org/2000/svg">
<path d="M6.32 18.072C5.184 18.072 4.16 17.808 3.248 17.28C2.336 16.736 1.616 15.992 1.088 15.048C0.56 14.088 0.296 13 0.296 11.784C0.296 10.552 0.56 9.472 1.088 8.544C1.616 7.6 2.336 6.864 3.248 6.336C4.16 5.792 5.184 5.52 6.32 5.52C7.456 5.52 8.472 5.792 9.368 6.336C10.264 6.864 10.968 7.6 11.48 8.544C12.008 9.472 12.272 10.552 12.272 11.784C12.272 13 12.008 14.088 11.48 15.048C10.968 15.992 10.264 16.736 9.368 17.28C8.472 17.808 7.456 18.072 6.32 18.072ZM6.32 17.616C7.376 17.616 8.32 17.368 9.152 16.872C10 16.376 10.664 15.688 11.144 14.808C11.624 13.928 11.864 12.92 11.864 11.784C11.864 10.632 11.624 9.624 11.144 8.76C10.664 7.88 10 7.2 9.152 6.72C8.32 6.224 7.376 5.976 6.32 5.976C5.264 5.976 4.32 6.224 3.488 6.72C2.656 7.2 1.992 7.88 1.496 8.76C1.016 9.624 0.776 10.632 0.776 11.784C0.776 12.92 1.016 13.928 1.496 14.808C1.992 15.688 2.656 16.376 3.488 16.872C4.32 17.368 5.264 17.616 6.32 17.616ZM11.864 18V13.44L12.104 11.76L11.864 10.08V0.191999H12.344V18H11.864ZM17.8616 18V5.592H18.3416V18H17.8616ZM18.1016 2.16C17.9416 2.16 17.7976 2.096 17.6696 1.968C17.5416 1.84 17.4776 1.696 17.4776 1.536C17.4776 1.36 17.5416 1.216 17.6696 1.104C17.7976 0.975999 17.9416 0.912 18.1016 0.912C18.2776 0.912 18.4216 0.975999 18.5336 1.104C18.6616 1.216 18.7256 1.36 18.7256 1.536C18.7256 1.696 18.6616 1.84 18.5336 1.968C18.4216 2.096 18.2776 2.16 18.1016 2.16ZM26.7176 18.072C25.7096 18.072 24.7656 17.912 23.8856 17.592C23.0056 17.272 22.3336 16.864 21.8696 16.368L22.1576 15.984C22.6056 16.416 23.2296 16.8 24.0296 17.136C24.8296 17.456 25.7256 17.616 26.7176 17.616C28.1896 17.616 29.2456 17.36 29.8856 16.848C30.5256 16.336 30.8456 15.672 30.8456 14.856C30.8456 14.264 30.6936 13.8 30.3896 13.464C30.0856 13.112 29.6776 12.848 29.1656 12.672C28.6696 12.48 28.1176 12.328 27.5096 12.216C26.9016 12.104 26.2936 11.984 25.6856 11.856C25.0776 11.728 24.5176 11.552 24.0056 11.328C23.5096 11.088 23.1096 10.768 22.8056 10.368C22.5016 9.952 22.3496 9.4 22.3496 8.712C22.3496 8.152 22.5016 7.632 22.8056 7.152C23.1096 6.672 23.5816 6.28 24.2216 5.976C24.8776 5.672 25.7176 5.52 26.7416 5.52C27.5096 5.52 28.2696 5.64 29.0216 5.88C29.7736 6.104 30.3816 6.408 30.8456 6.792L30.5576 7.176C30.0616 6.776 29.4776 6.48 28.8056 6.288C28.1336 6.08 27.4456 5.976 26.7416 5.976C25.3816 5.976 24.3896 6.24 23.7656 6.768C23.1576 7.296 22.8536 7.944 22.8536 8.712C22.8536 9.32 23.0056 9.808 23.3096 10.176C23.6136 10.528 24.0136 10.8 24.5096 10.992C25.0216 11.184 25.5816 11.336 26.1896 11.448C26.7976 11.56 27.3976 11.68 27.9896 11.808C28.5976 11.936 29.1496 12.112 29.6456 12.336C30.1576 12.56 30.5656 12.872 30.8696 13.272C31.1736 13.656 31.3256 14.184 31.3256 14.856C31.3256 15.48 31.1576 16.04 30.8216 16.536C30.4856 17.016 29.9736 17.392 29.2856 17.664C28.6136 17.936 27.7576 18.072 26.7176 18.072ZM39.6029 18.072C38.4349 18.072 37.3869 17.808 36.4589 17.28C35.5469 16.736 34.8269 15.992 34.2989 15.048C33.7709 14.104 33.5069 13.016 33.5069 11.784C33.5069 10.552 33.7709 9.464 34.2989 8.52C34.8269 7.576 35.5469 6.84 36.4589 6.312C37.3869 5.784 38.4349 5.52 39.6029 5.52C40.4989 5.52 41.3309 5.688 42.0989 6.024C42.8829 6.36 43.5389 6.864 44.0669 7.536L43.7309 7.896C43.2509 7.24 42.6509 6.76 41.9309 6.456C41.2109 6.136 40.4349 5.976 39.6029 5.976C38.5309 5.976 37.5709 6.224 36.7229 6.72C35.8749 7.2 35.2029 7.88 34.7069 8.76C34.2269 9.624 33.9869 10.632 33.9869 11.784C33.9869 12.936 34.2269 13.952 34.7069 14.832C35.2029 15.696 35.8749 16.376 36.7229 16.872C37.5709 17.368 38.5309 17.616 39.6029 17.616C40.4349 17.616 41.2109 17.456 41.9309 17.136C42.6509 16.816 43.2509 16.336 43.7309 15.696L44.0669 16.056C43.5389 16.728 42.8829 17.232 42.0989 17.568C41.3309 17.904 40.4989 18.072 39.6029 18.072ZM52.3747 18.072C51.2227 18.072 50.1907 17.808 49.2787 17.28C48.3827 16.736 47.6707 15.992 47.1427 15.048C46.6147 14.088 46.3507 13 46.3507 11.784C46.3507 10.552 46.6147 9.472 47.1427 8.544C47.6707 7.6 48.3827 6.864 49.2787 6.336C50.1907 5.792 51.2227 5.52 52.3747 5.52C53.5267 5.52 54.5587 5.792 55.4707 6.336C56.3827 6.864 57.0947 7.6 57.6067 8.544C58.1347 9.472 58.3987 10.552 58.3987 11.784C58.3987 13 58.1347 14.088 57.6067 15.048C57.0947 15.992 56.3827 16.736 55.4707 17.28C54.5587 17.808 53.5267 18.072 52.3747 18.072ZM52.3747 17.616C53.4307 17.616 54.3747 17.368 55.2067 16.872C56.0547 16.376 56.7187 15.688 57.1987 14.808C57.6787 13.928 57.9187 12.92 57.9187 11.784C57.9187 10.632 57.6787 9.624 57.1987 8.76C56.7187 7.88 56.0547 7.2 55.2067 6.72C54.3747 6.224 53.4307 5.976 52.3747 5.976C51.3187 5.976 50.3747 6.224 49.5427 6.72C48.7107 7.2 48.0467 7.88 47.5507 8.76C47.0707 9.624 46.8307 10.632 46.8307 11.784C46.8307 12.92 47.0707 13.928 47.5507 14.808C48.0467 15.688 48.7107 16.376 49.5427 16.872C50.3747 17.368 51.3187 17.616 52.3747 17.616ZM62.4631 18V5.592H62.9431V9.024L62.8951 8.952C63.2311 7.864 63.8151 7.024 64.6471 6.432C65.4951 5.824 66.5511 5.52 67.8151 5.52V6C67.7991 6 67.7751 6 67.7431 6C67.7271 6 67.7031 6 67.6711 6C66.1831 6 65.0231 6.48 64.1911 7.44C63.3591 8.384 62.9431 9.68 62.9431 11.328V18H62.4631ZM75.8591 18.072C74.7231 18.072 73.6991 17.808 72.7871 17.28C71.8751 16.736 71.1551 15.992 70.6271 15.048C70.0991 14.088 69.8351 13 69.8351 11.784C69.8351 10.552 70.0991 9.472 70.6271 8.544C71.1551 7.6 71.8751 6.864 72.7871 6.336C73.6991 5.792 74.7231 5.52 75.8591 5.52C76.9951 5.52 78.0111 5.792 78.9071 6.336C79.8031 6.864 80.5071 7.6 81.0191 8.544C81.5471 9.472 81.8111 10.552 81.8111 11.784C81.8111 13 81.5471 14.088 81.0191 15.048C80.5071 15.992 79.8031 16.736 78.9071 17.28C78.0111 17.808 76.9951 18.072 75.8591 18.072ZM75.8591 17.616C76.9151 17.616 77.8591 17.368 78.6911 16.872C79.5391 16.376 80.2031 15.688 80.6831 14.808C81.1631 13.928 81.4031 12.92 81.4031 11.784C81.4031 10.632 81.1631 9.624 80.6831 8.76C80.2031 7.88 79.5391 7.2 78.6911 6.72C77.8591 6.224 76.9151 5.976 75.8591 5.976C74.8031 5.976 73.8591 6.224 73.0271 6.72C72.1951 7.2 71.5311 7.88 71.0351 8.76C70.5551 9.624 70.3151 10.632 70.3151 11.784C70.3151 12.92 70.5551 13.928 71.0351 14.808C71.5311 15.688 72.1951 16.376 73.0271 16.872C73.8591 17.368 74.8031 17.616 75.8591 17.616ZM81.4031 18V13.44L81.6431 11.76L81.4031 10.08V0.191999H81.8831V18H81.4031Z" fill="white"/>
</svg>
