<svg width="267" height="130" viewBox="0 0 267 130" fill="none" xmlns="http://www.w3.org/2000/svg">
<path d="M64.96 86V65H67.8V86H64.96ZM66.4 60.36C65.8133 60.36 65.32 60.16 64.92 59.76C64.52 59.36 64.32 58.88 64.32 58.32C64.32 57.76 64.52 57.2933 64.92 56.92C65.32 56.52 65.8133 56.32 66.4 56.32C66.9867 56.32 67.48 56.5067 67.88 56.88C68.28 57.2533 68.48 57.72 68.48 58.28C68.48 58.8667 68.28 59.36 67.88 59.76C67.5067 60.16 67.0133 60.36 66.4 60.36ZM88.4222 64.8C90.1289 64.8 91.6222 65.1333 92.9022 65.8C94.2089 66.44 95.2222 67.4267 95.9422 68.76C96.6889 70.0933 97.0622 71.7733 97.0622 73.8V86H94.2222V74.08C94.2222 71.8667 93.6622 70.2 92.5422 69.08C91.4489 67.9333 89.9022 67.36 87.9022 67.36C86.4089 67.36 85.1022 67.6667 83.9822 68.28C82.8889 68.8667 82.0355 69.7333 81.4222 70.88C80.8355 72 80.5422 73.36 80.5422 74.96V86H77.7022V65H80.4222V70.76L79.9822 69.68C80.6489 68.16 81.7155 66.9733 83.1822 66.12C84.6489 65.24 86.3955 64.8 88.4222 64.8ZM115.293 86.2C113.267 86.2 111.44 85.7467 109.813 84.84C108.213 83.9067 106.947 82.64 106.013 81.04C105.08 79.4133 104.613 77.56 104.613 75.48C104.613 73.3733 105.08 71.52 106.013 69.92C106.947 68.32 108.213 67.0667 109.813 66.16C111.413 65.2533 113.24 64.8 115.293 64.8C117.373 64.8 119.213 65.2533 120.813 66.16C122.44 67.0667 123.707 68.32 124.613 69.92C125.547 71.52 126.013 73.3733 126.013 75.48C126.013 77.56 125.547 79.4133 124.613 81.04C123.707 82.64 122.44 83.9067 120.813 84.84C119.187 85.7467 117.347 86.2 115.293 86.2ZM115.293 83.68C116.813 83.68 118.16 83.3467 119.333 82.68C120.507 81.9867 121.427 81.0267 122.093 79.8C122.787 78.5467 123.133 77.1067 123.133 75.48C123.133 73.8267 122.787 72.3867 122.093 71.16C121.427 69.9333 120.507 68.9867 119.333 68.32C118.16 67.6267 116.827 67.28 115.333 67.28C113.84 67.28 112.507 67.6267 111.333 68.32C110.16 68.9867 109.227 69.9333 108.533 71.16C107.84 72.3867 107.493 73.8267 107.493 75.48C107.493 77.1067 107.84 78.5467 108.533 79.8C109.227 81.0267 110.16 81.9867 111.333 82.68C112.507 83.3467 113.827 83.68 115.293 83.68ZM140.452 86.2C138.478 86.2 136.958 85.6667 135.892 84.6C134.825 83.5333 134.292 82.0267 134.292 80.08V60.36H137.132V79.92C137.132 81.1467 137.438 82.0933 138.052 82.76C138.692 83.4267 139.598 83.76 140.772 83.76C142.025 83.76 143.065 83.4 143.892 82.68L144.892 84.72C144.332 85.2267 143.652 85.6 142.852 85.84C142.078 86.08 141.278 86.2 140.452 86.2ZM130.532 67.36V65H143.532V67.36H130.532ZM151.995 86V62.36C151.995 60.4933 152.541 58.9867 153.635 57.84C154.728 56.6933 156.301 56.12 158.355 56.12C159.155 56.12 159.928 56.2267 160.675 56.44C161.421 56.6533 162.048 56.9867 162.555 57.44L161.595 59.56C161.195 59.2133 160.728 58.96 160.195 58.8C159.661 58.6133 159.088 58.52 158.475 58.52C157.275 58.52 156.355 58.8533 155.715 59.52C155.075 60.1867 154.755 61.1733 154.755 62.48V65.68L154.835 67V86H151.995ZM148.235 67.36V65H161.235V67.36H148.235ZM165.075 86V56.32H167.915V86H165.075ZM178.05 93.96C177.063 93.96 176.116 93.8 175.21 93.48C174.33 93.16 173.57 92.68 172.93 92.04L174.25 89.92C174.783 90.4267 175.356 90.8133 175.97 91.08C176.61 91.3733 177.316 91.52 178.09 91.52C179.023 91.52 179.823 91.2533 180.49 90.72C181.183 90.2133 181.836 89.3067 182.45 88L183.81 84.92L184.13 84.48L192.77 65H195.57L185.05 88.52C184.463 89.88 183.81 90.96 183.09 91.76C182.396 92.56 181.636 93.12 180.81 93.44C179.983 93.7867 179.063 93.96 178.05 93.96ZM183.65 86.6L173.97 65H176.93L185.49 84.28L183.65 86.6ZM201.569 86V65H204.409V86H201.569ZM203.009 60.36C202.423 60.36 201.929 60.16 201.529 59.76C201.129 59.36 200.929 58.88 200.929 58.32C200.929 57.76 201.129 57.2933 201.529 56.92C201.929 56.52 202.423 56.32 203.009 56.32C203.596 56.32 204.089 56.5067 204.489 56.88C204.889 57.2533 205.089 57.72 205.089 58.28C205.089 58.8667 204.889 59.36 204.489 59.76C204.116 60.16 203.623 60.36 203.009 60.36ZM225.032 64.8C226.738 64.8 228.232 65.1333 229.512 65.8C230.818 66.44 231.832 67.4267 232.552 68.76C233.298 70.0933 233.672 71.7733 233.672 73.8V86H230.832V74.08C230.832 71.8667 230.272 70.2 229.152 69.08C228.058 67.9333 226.512 67.36 224.512 67.36C223.018 67.36 221.712 67.6667 220.592 68.28C219.498 68.8667 218.645 69.7333 218.032 70.88C217.445 72 217.152 73.36 217.152 74.96V86H214.312V65H217.032V70.76L216.592 69.68C217.258 68.16 218.325 66.9733 219.792 66.12C221.258 65.24 223.005 64.8 225.032 64.8ZM252.303 93.96C250.383 93.96 248.543 93.68 246.783 93.12C245.023 92.56 243.596 91.76 242.503 90.72L243.943 88.56C244.929 89.44 246.143 90.1333 247.583 90.64C249.049 91.1733 250.596 91.44 252.223 91.44C254.889 91.44 256.849 90.8133 258.103 89.56C259.356 88.3333 259.983 86.4133 259.983 83.8V78.56L260.383 74.96L260.103 71.36V65H262.823V83.44C262.823 87.0667 261.929 89.72 260.143 91.4C258.383 93.1067 255.769 93.96 252.303 93.96ZM251.783 85.2C249.783 85.2 247.983 84.7733 246.383 83.92C244.783 83.04 243.516 81.8267 242.583 80.28C241.676 78.7333 241.223 76.96 241.223 74.96C241.223 72.96 241.676 71.2 242.583 69.68C243.516 68.1333 244.783 66.9333 246.383 66.08C247.983 65.2267 249.783 64.8 251.783 64.8C253.649 64.8 255.329 65.1867 256.823 65.96C258.316 66.7333 259.503 67.88 260.383 69.4C261.263 70.92 261.703 72.7733 261.703 74.96C261.703 77.1467 261.263 79 260.383 80.52C259.503 82.04 258.316 83.2 256.823 84C255.329 84.8 253.649 85.2 251.783 85.2ZM252.063 82.68C253.609 82.68 254.983 82.36 256.183 81.72C257.383 81.0533 258.329 80.1467 259.023 79C259.716 77.8267 260.063 76.48 260.063 74.96C260.063 73.44 259.716 72.1067 259.023 70.96C258.329 69.8133 257.383 68.92 256.183 68.28C254.983 67.6133 253.609 67.28 252.063 67.28C250.543 67.28 249.169 67.6133 247.943 68.28C246.743 68.92 245.796 69.8133 245.103 70.96C244.436 72.1067 244.103 73.44 244.103 74.96C244.103 76.48 244.436 77.8267 245.103 79C245.796 80.1467 246.743 81.0533 247.943 81.72C249.169 82.36 250.543 82.68 252.063 82.68Z" fill="black"/>
<path d="M120.889 92.824C109.485 110.163 89.491 121.663 60.9076 127.323C32.3242 132.984 14.4138 124.314 7.1766 101.315C-0.0606286 78.3153 -0.937869 54.0646 4.54488 28.5627C10.0276 3.06076 27.3166 -4.74473 56.4117 5.1462C85.5068 15.0371 106.378 27.7881 119.025 43.3991C131.672 59.0101 132.293 75.485 120.889 92.824Z" stroke="#444CF7" stroke-width="2"/>
</svg>
