<svg width="77" height="23" viewBox="0 0 77 23" fill="none" xmlns="http://www.w3.org/2000/svg">
<path d="M5.616 18.072C4.608 18.072 3.664 17.912 2.784 17.592C1.904 17.272 1.232 16.864 0.768 16.368L1.056 15.984C1.504 16.416 2.128 16.8 2.928 17.136C3.728 17.456 4.624 17.616 5.616 17.616C7.088 17.616 8.144 17.36 8.784 16.848C9.424 16.336 9.744 15.672 9.744 14.856C9.744 14.264 9.592 13.8 9.288 13.464C8.984 13.112 8.576 12.848 8.064 12.672C7.568 12.48 7.016 12.328 6.408 12.216C5.8 12.104 5.192 11.984 4.584 11.856C3.976 11.728 3.416 11.552 2.904 11.328C2.408 11.088 2.008 10.768 1.704 10.368C1.4 9.952 1.248 9.4 1.248 8.712C1.248 8.152 1.4 7.632 1.704 7.152C2.008 6.672 2.48 6.28 3.12 5.976C3.776 5.672 4.616 5.52 5.64 5.52C6.408 5.52 7.168 5.64 7.92 5.88C8.672 6.104 9.28 6.408 9.744 6.792L9.456 7.176C8.96 6.776 8.376 6.48 7.704 6.288C7.032 6.08 6.344 5.976 5.64 5.976C4.28 5.976 3.288 6.24 2.664 6.768C2.056 7.296 1.752 7.944 1.752 8.712C1.752 9.32 1.904 9.808 2.208 10.176C2.512 10.528 2.912 10.8 3.408 10.992C3.92 11.184 4.48 11.336 5.088 11.448C5.696 11.56 6.296 11.68 6.888 11.808C7.496 11.936 8.048 12.112 8.544 12.336C9.056 12.56 9.464 12.872 9.768 13.272C10.072 13.656 10.224 14.184 10.224 14.856C10.224 15.48 10.056 16.04 9.72 16.536C9.384 17.016 8.872 17.392 8.184 17.664C7.512 17.936 6.656 18.072 5.616 18.072ZM19.8934 18.072C18.7574 18.072 17.7414 17.808 16.8454 17.28C15.9494 16.736 15.2374 15.992 14.7094 15.048C14.1974 14.104 13.9414 13.024 13.9414 11.808C13.9414 10.576 14.1974 9.488 14.7094 8.544C15.2374 7.6 15.9494 6.864 16.8454 6.336C17.7414 5.792 18.7574 5.52 19.8934 5.52C21.0294 5.52 22.0534 5.792 22.9654 6.336C23.8774 6.864 24.5974 7.6 25.1254 8.544C25.6534 9.488 25.9174 10.576 25.9174 11.808C25.9174 13.024 25.6534 14.104 25.1254 15.048C24.5974 15.992 23.8774 16.736 22.9654 17.28C22.0534 17.808 21.0294 18.072 19.8934 18.072ZM13.8694 22.656V5.592H14.3494V10.152L14.1094 11.832L14.3494 13.512V22.656H13.8694ZM19.8934 17.616C20.9494 17.616 21.8934 17.376 22.7254 16.896C23.5734 16.4 24.2374 15.712 24.7174 14.832C25.1974 13.952 25.4374 12.944 25.4374 11.808C25.4374 10.656 25.1974 9.648 24.7174 8.784C24.2374 7.904 23.5734 7.216 22.7254 6.72C21.8934 6.224 20.9494 5.976 19.8934 5.976C18.8374 5.976 17.8854 6.224 17.0374 6.72C16.2054 7.216 15.5494 7.904 15.0694 8.784C14.5894 9.648 14.3494 10.656 14.3494 11.808C14.3494 12.944 14.5894 13.952 15.0694 14.832C15.5494 15.712 16.2054 16.4 17.0374 16.896C17.8854 17.376 18.8374 17.616 19.8934 17.616ZM34.5309 18.072C33.3789 18.072 32.3469 17.808 31.4349 17.28C30.5389 16.736 29.8269 15.992 29.2989 15.048C28.7709 14.088 28.5069 13 28.5069 11.784C28.5069 10.552 28.7709 9.472 29.2989 8.544C29.8269 7.6 30.5389 6.864 31.4349 6.336C32.3469 5.792 33.3789 5.52 34.5309 5.52C35.6829 5.52 36.7149 5.792 37.6269 6.336C38.5389 6.864 39.2509 7.6 39.7629 8.544C40.2909 9.472 40.5549 10.552 40.5549 11.784C40.5549 13 40.2909 14.088 39.7629 15.048C39.2509 15.992 38.5389 16.736 37.6269 17.28C36.7149 17.808 35.6829 18.072 34.5309 18.072ZM34.5309 17.616C35.5869 17.616 36.5309 17.368 37.3629 16.872C38.2109 16.376 38.8749 15.688 39.3549 14.808C39.8349 13.928 40.0749 12.92 40.0749 11.784C40.0749 10.632 39.8349 9.624 39.3549 8.76C38.8749 7.88 38.2109 7.2 37.3629 6.72C36.5309 6.224 35.5869 5.976 34.5309 5.976C33.4749 5.976 32.5309 6.224 31.6989 6.72C30.8669 7.2 30.2029 7.88 29.7069 8.76C29.2269 9.624 28.9869 10.632 28.9869 11.784C28.9869 12.92 29.2269 13.928 29.7069 14.808C30.2029 15.688 30.8669 16.376 31.6989 16.872C32.5309 17.368 33.4749 17.616 34.5309 17.616ZM47.8114 18.072C46.8354 18.072 46.0914 17.792 45.5794 17.232C45.0674 16.672 44.8114 15.936 44.8114 15.024V2.88H45.2914V14.904C45.2914 15.784 45.5074 16.456 45.9394 16.92C46.3714 17.384 47.0034 17.616 47.8354 17.616C48.6674 17.616 49.3554 17.36 49.8994 16.848L50.2354 17.184C49.9474 17.488 49.5794 17.712 49.1314 17.856C48.6994 18 48.2594 18.072 47.8114 18.072ZM42.4114 6.048V5.592H49.4914V6.048H42.4114ZM53.9241 18V5.592H54.4041V18H53.9241ZM54.1641 2.16C54.0041 2.16 53.8601 2.096 53.7321 1.968C53.6041 1.84 53.5401 1.696 53.5401 1.536C53.5401 1.36 53.6041 1.216 53.7321 1.104C53.8601 0.975999 54.0041 0.912 54.1641 0.912C54.3401 0.912 54.4841 0.975999 54.5961 1.104C54.7241 1.216 54.7881 1.36 54.7881 1.536C54.7881 1.696 54.7241 1.84 54.5961 1.968C54.4841 2.096 54.3401 2.16 54.1641 2.16ZM60.1161 18V3.168C60.1161 2.256 60.3721 1.52 60.8841 0.959999C61.4121 0.399999 62.1561 0.119998 63.1161 0.119998C63.5641 0.119998 64.0041 0.191998 64.4361 0.335999C64.8841 0.479999 65.2521 0.703999 65.5401 1.008L65.2041 1.344C64.9481 1.088 64.6361 0.895999 64.2681 0.767999C63.9161 0.639999 63.5401 0.576 63.1401 0.576C62.3081 0.576 61.6761 0.808 61.2441 1.272C60.8121 1.736 60.5961 2.408 60.5961 3.288V5.664V5.928V18H60.1161ZM57.7161 6.048V5.592H64.7961V6.048H57.7161ZM66.7956 22.728C66.2516 22.728 65.7476 22.632 65.2836 22.44C64.8356 22.264 64.4436 21.992 64.1076 21.624L64.4676 21.24C64.8036 21.592 65.1556 21.848 65.5236 22.008C65.8916 22.184 66.3236 22.272 66.8196 22.272C67.4276 22.272 67.9716 22.096 68.4516 21.744C68.9316 21.408 69.3876 20.776 69.8196 19.848L70.7316 17.832L70.8516 17.664L76.3476 5.592H76.8996L70.2996 19.992C69.9956 20.664 69.6596 21.2 69.2916 21.6C68.9396 22 68.5556 22.288 68.1396 22.464C67.7396 22.64 67.2916 22.728 66.7956 22.728ZM70.8276 18.264L64.9956 5.592H65.5476L71.0436 17.664L70.8276 18.264Z" fill="black"/>
</svg>
