<svg width="105" height="23" viewBox="0 0 105 23" fill="none" xmlns="http://www.w3.org/2000/svg">
<path d="M5.952 18.072C4.976 18.072 4.232 17.792 3.72 17.232C3.208 16.672 2.952 15.936 2.952 15.024V2.88H3.432V14.904C3.432 15.784 3.648 16.456 4.08 16.92C4.512 17.384 5.144 17.616 5.976 17.616C6.808 17.616 7.496 17.36 8.04 16.848L8.376 17.184C8.088 17.488 7.72 17.712 7.272 17.856C6.84 18 6.4 18.072 5.952 18.072ZM0.552 6.048V5.592H7.632V6.048H0.552ZM16.3239 18.072C15.1239 18.072 14.0599 17.808 13.1319 17.28C12.2039 16.736 11.4679 15.992 10.9239 15.048C10.3959 14.088 10.1319 13 10.1319 11.784C10.1319 10.552 10.3799 9.472 10.8759 8.544C11.3719 7.6 12.0519 6.864 12.9159 6.336C13.7959 5.792 14.7799 5.52 15.8679 5.52C16.9559 5.52 17.9319 5.784 18.7959 6.312C19.6759 6.824 20.3639 7.544 20.8599 8.472C21.3719 9.4 21.6279 10.464 21.6279 11.664C21.6279 11.68 21.6279 11.696 21.6279 11.712C21.6279 11.728 21.6279 11.752 21.6279 11.784H10.3959V11.328H21.3639L21.1719 11.688C21.1719 10.6 20.9399 9.624 20.4759 8.76C20.0119 7.896 19.3799 7.216 18.5799 6.72C17.7959 6.224 16.8919 5.976 15.8679 5.976C14.8599 5.976 13.9559 6.224 13.1559 6.72C12.3559 7.216 11.7239 7.896 11.2599 8.76C10.8119 9.624 10.5879 10.6 10.5879 11.688V11.784C10.5879 12.92 10.8359 13.928 11.3319 14.808C11.8279 15.688 12.5079 16.376 13.3719 16.872C14.2359 17.368 15.2199 17.616 16.3239 17.616C17.1559 17.616 17.9399 17.456 18.6759 17.136C19.4279 16.816 20.0519 16.336 20.5479 15.696L20.8839 16.032C20.3399 16.704 19.6679 17.216 18.8679 17.568C18.0679 17.904 17.2199 18.072 16.3239 18.072ZM25.6819 18V0.191999H26.1619V18H25.6819ZM36.4099 18.072C35.2099 18.072 34.1459 17.808 33.2179 17.28C32.2899 16.736 31.5539 15.992 31.0099 15.048C30.4819 14.088 30.2179 13 30.2179 11.784C30.2179 10.552 30.4659 9.472 30.9619 8.544C31.4579 7.6 32.1379 6.864 33.0019 6.336C33.8819 5.792 34.8659 5.52 35.9539 5.52C37.0419 5.52 38.0179 5.784 38.8819 6.312C39.7619 6.824 40.4499 7.544 40.9459 8.472C41.4579 9.4 41.7139 10.464 41.7139 11.664C41.7139 11.68 41.7139 11.696 41.7139 11.712C41.7139 11.728 41.7139 11.752 41.7139 11.784H30.4819V11.328H41.4499L41.2579 11.688C41.2579 10.6 41.0259 9.624 40.5619 8.76C40.0979 7.896 39.4659 7.216 38.6659 6.72C37.8819 6.224 36.9779 5.976 35.9539 5.976C34.9459 5.976 34.0419 6.224 33.2419 6.72C32.4419 7.216 31.8099 7.896 31.3459 8.76C30.8979 9.624 30.6739 10.6 30.6739 11.688V11.784C30.6739 12.92 30.9219 13.928 31.4179 14.808C31.9139 15.688 32.5939 16.376 33.4579 16.872C34.3219 17.368 35.3059 17.616 36.4099 17.616C37.2419 17.616 38.0259 17.456 38.7619 17.136C39.5139 16.816 40.1379 16.336 40.6339 15.696L40.9699 16.032C40.4259 16.704 39.7539 17.216 38.9539 17.568C38.1539 17.904 37.3059 18.072 36.4099 18.072ZM50.7598 22.728C49.6398 22.728 48.5918 22.544 47.6158 22.176C46.6398 21.808 45.8558 21.304 45.2638 20.664L45.5998 20.328C46.2398 20.952 46.9998 21.432 47.8798 21.768C48.7598 22.104 49.7198 22.272 50.7598 22.272C52.5518 22.272 53.8718 21.848 54.7198 21C55.5838 20.152 56.0158 18.808 56.0158 16.968V12.984L56.2558 11.544L56.0158 10.104V5.592H56.4958V16.896C56.4958 18.896 56.0158 20.368 55.0558 21.312C54.1118 22.256 52.6798 22.728 50.7598 22.728ZM50.3998 17.592C49.2478 17.592 48.2078 17.336 47.2798 16.824C46.3678 16.296 45.6398 15.576 45.0958 14.664C44.5678 13.752 44.3038 12.712 44.3038 11.544C44.3038 10.36 44.5678 9.32 45.0958 8.424C45.6398 7.512 46.3678 6.8 47.2798 6.288C48.2078 5.776 49.2478 5.52 50.3998 5.52C51.5678 5.52 52.5998 5.776 53.4958 6.288C54.4078 6.8 55.1198 7.512 55.6318 8.424C56.1598 9.32 56.4238 10.36 56.4238 11.544C56.4238 12.712 56.1598 13.752 55.6318 14.664C55.1198 15.576 54.4078 16.296 53.4958 16.824C52.5998 17.336 51.5678 17.592 50.3998 17.592ZM50.3998 17.136C51.4878 17.136 52.4478 16.904 53.2798 16.44C54.1278 15.96 54.7918 15.296 55.2718 14.448C55.7678 13.6 56.0158 12.632 56.0158 11.544C56.0158 10.44 55.7678 9.472 55.2718 8.64C54.7918 7.808 54.1278 7.16 53.2798 6.696C52.4478 6.216 51.4878 5.976 50.3998 5.976C49.3278 5.976 48.3678 6.216 47.5198 6.696C46.6718 7.16 45.9998 7.808 45.5038 8.64C45.0238 9.472 44.7838 10.44 44.7838 11.544C44.7838 12.632 45.0238 13.6 45.5038 14.448C45.9998 15.296 46.6718 15.96 47.5198 16.44C48.3678 16.904 49.3278 17.136 50.3998 17.136ZM62.01 18V5.592H62.49V9.024L62.442 8.952C62.778 7.864 63.362 7.024 64.194 6.432C65.042 5.824 66.098 5.52 67.362 5.52V6C67.346 6 67.322 6 67.29 6C67.274 6 67.25 6 67.218 6C65.73 6 64.57 6.48 63.738 7.44C62.906 8.384 62.49 9.68 62.49 11.328V18H62.01ZM77.9222 18V15.048V14.64V9.888C77.9222 8.592 77.5862 7.616 76.9142 6.96C76.2422 6.304 75.2662 5.976 73.9862 5.976C73.0582 5.976 72.2102 6.136 71.4422 6.456C70.6742 6.776 70.0182 7.192 69.4742 7.704L69.1382 7.368C69.7302 6.808 70.4502 6.36 71.2982 6.024C72.1462 5.688 73.0342 5.52 73.9622 5.52C75.4022 5.52 76.4982 5.888 77.2502 6.624C78.0182 7.36 78.4022 8.44 78.4022 9.864V18H77.9222ZM73.1942 18.072C72.2662 18.072 71.4742 17.928 70.8182 17.64C70.1622 17.352 69.6582 16.944 69.3062 16.416C68.9702 15.888 68.8022 15.28 68.8022 14.592C68.8022 14 68.9382 13.456 69.2102 12.96C69.4982 12.448 69.9622 12.04 70.6022 11.736C71.2422 11.416 72.1142 11.256 73.2182 11.256H78.1862V11.712H73.1942C71.7862 11.712 70.7782 11.984 70.1702 12.528C69.5782 13.056 69.2822 13.736 69.2822 14.568C69.2822 15.496 69.6262 16.24 70.3142 16.8C71.0022 17.344 71.9622 17.616 73.1942 17.616C74.3942 17.616 75.3782 17.344 76.1462 16.8C76.9302 16.24 77.5222 15.456 77.9222 14.448L78.1622 14.76C77.8262 15.752 77.2342 16.552 76.3862 17.16C75.5542 17.768 74.4902 18.072 73.1942 18.072ZM99.2154 5.52C100.207 5.52 101.063 5.72 101.783 6.12C102.503 6.504 103.055 7.08 103.439 7.848C103.839 8.616 104.039 9.56 104.039 10.68V18H103.559V10.68C103.559 9.144 103.175 7.976 102.407 7.176C101.655 6.376 100.599 5.976 99.2394 5.976C98.1834 5.976 97.2714 6.2 96.5034 6.648C95.7514 7.08 95.1674 7.696 94.7514 8.496C94.3514 9.28 94.1514 10.2 94.1514 11.256V18H93.6714V10.68C93.6714 9.144 93.2874 7.976 92.5194 7.176C91.7674 6.376 90.7114 5.976 89.3514 5.976C88.2954 5.976 87.3834 6.2 86.6154 6.648C85.8634 7.08 85.2794 7.696 84.8634 8.496C84.4634 9.28 84.2634 10.2 84.2634 11.256V18H83.7834V5.592H84.2634V9.096L84.2154 9.024C84.5674 7.952 85.1834 7.104 86.0634 6.48C86.9434 5.84 88.0314 5.52 89.3274 5.52C90.6074 5.52 91.6634 5.848 92.4954 6.504C93.3274 7.144 93.8474 8.104 94.0554 9.384L93.9834 9.36C94.2874 8.224 94.8874 7.304 95.7834 6.6C96.6954 5.88 97.8394 5.52 99.2154 5.52Z" fill="black"/>
</svg>
