<svg width="98" height="23" viewBox="0 0 98 23" fill="none" xmlns="http://www.w3.org/2000/svg">
<path d="M2.944 22.728C2.4 22.728 1.896 22.632 1.432 22.44C0.984 22.264 0.592 21.992 0.256 21.624L0.616 21.24C0.952 21.592 1.304 21.848 1.672 22.008C2.04 22.184 2.472 22.272 2.968 22.272C3.576 22.272 4.12 22.096 4.6 21.744C5.08 21.408 5.536 20.776 5.968 19.848L6.88 17.832L7 17.664L12.496 5.592H13.048L6.448 19.992C6.144 20.664 5.808 21.2 5.44 21.6C5.088 22 4.704 22.288 4.288 22.464C3.888 22.64 3.44 22.728 2.944 22.728ZM6.976 18.264L1.144 5.592H1.696L7.192 17.664L6.976 18.264ZM20.1559 18.072C19.0039 18.072 17.9719 17.808 17.0599 17.28C16.1639 16.736 15.4519 15.992 14.9239 15.048C14.3959 14.088 14.1319 13 14.1319 11.784C14.1319 10.552 14.3959 9.472 14.9239 8.544C15.4519 7.6 16.1639 6.864 17.0599 6.336C17.9719 5.792 19.0039 5.52 20.1559 5.52C21.3079 5.52 22.3399 5.792 23.2519 6.336C24.1639 6.864 24.8759 7.6 25.3879 8.544C25.9159 9.472 26.1799 10.552 26.1799 11.784C26.1799 13 25.9159 14.088 25.3879 15.048C24.8759 15.992 24.1639 16.736 23.2519 17.28C22.3399 17.808 21.3079 18.072 20.1559 18.072ZM20.1559 17.616C21.2119 17.616 22.1559 17.368 22.9879 16.872C23.8359 16.376 24.4999 15.688 24.9799 14.808C25.4599 13.928 25.6999 12.92 25.6999 11.784C25.6999 10.632 25.4599 9.624 24.9799 8.76C24.4999 7.88 23.8359 7.2 22.9879 6.72C22.1559 6.224 21.2119 5.976 20.1559 5.976C19.0999 5.976 18.1559 6.224 17.3239 6.72C16.4919 7.2 15.8279 7.88 15.3319 8.76C14.8519 9.624 14.6119 10.632 14.6119 11.784C14.6119 12.92 14.8519 13.928 15.3319 14.808C15.8279 15.688 16.4919 16.376 17.3239 16.872C18.1559 17.368 19.0999 17.616 20.1559 17.616ZM35.1884 18.072C34.1324 18.072 33.2204 17.88 32.4524 17.496C31.7004 17.096 31.1164 16.512 30.7004 15.744C30.3004 14.976 30.1004 14.032 30.1004 12.912V5.592H30.5804V12.912C30.5804 14.448 30.9804 15.616 31.7804 16.416C32.5804 17.216 33.7084 17.616 35.1644 17.616C36.2044 17.616 37.1004 17.4 37.8524 16.968C38.6044 16.52 39.1804 15.896 39.5804 15.096C39.9804 14.296 40.1804 13.376 40.1804 12.336V5.592H40.6604V18H40.1804V14.496L40.2284 14.568C39.8764 15.64 39.2684 16.496 38.4044 17.136C37.5404 17.76 36.4684 18.072 35.1884 18.072ZM49.3739 18.072C48.3979 18.072 47.6539 17.792 47.1419 17.232C46.6299 16.672 46.3739 15.936 46.3739 15.024V2.88H46.8539V14.904C46.8539 15.784 47.0699 16.456 47.5019 16.92C47.9339 17.384 48.5659 17.616 49.3979 17.616C50.2299 17.616 50.9179 17.36 51.4619 16.848L51.7979 17.184C51.5099 17.488 51.1419 17.712 50.6939 17.856C50.2619 18 49.8219 18.072 49.3739 18.072ZM43.9739 6.048V5.592H51.0539V6.048H43.9739ZM60.4306 18.072C59.3746 18.072 58.4626 17.88 57.6946 17.496C56.9426 17.096 56.3586 16.512 55.9426 15.744C55.5426 14.976 55.3426 14.032 55.3426 12.912V5.592H55.8226V12.912C55.8226 14.448 56.2226 15.616 57.0226 16.416C57.8226 17.216 58.9506 17.616 60.4066 17.616C61.4466 17.616 62.3426 17.4 63.0946 16.968C63.8466 16.52 64.4226 15.896 64.8226 15.096C65.2226 14.296 65.4226 13.376 65.4226 12.336V5.592H65.9026V18H65.4226V14.496L65.4706 14.568C65.1186 15.64 64.5106 16.496 63.6466 17.136C62.7826 17.76 61.7106 18.072 60.4306 18.072ZM77.4481 18.072C76.3121 18.072 75.2961 17.808 74.4001 17.28C73.5041 16.736 72.7921 15.992 72.2641 15.048C71.7521 14.088 71.4961 13 71.4961 11.784C71.4961 10.552 71.7521 9.472 72.2641 8.544C72.7921 7.6 73.5041 6.864 74.4001 6.336C75.2961 5.792 76.3121 5.52 77.4481 5.52C78.5841 5.52 79.6081 5.792 80.5201 6.336C81.4321 6.864 82.1521 7.6 82.6801 8.544C83.2081 9.472 83.4721 10.552 83.4721 11.784C83.4721 13 83.2081 14.088 82.6801 15.048C82.1521 15.992 81.4321 16.736 80.5201 17.28C79.6081 17.808 78.5841 18.072 77.4481 18.072ZM71.4241 18V0.191999H71.9041V10.08L71.6641 11.76L71.9041 13.44V18H71.4241ZM77.4481 17.616C78.5041 17.616 79.4481 17.368 80.2801 16.872C81.1281 16.376 81.7921 15.688 82.2721 14.808C82.7521 13.928 82.9921 12.92 82.9921 11.784C82.9921 10.632 82.7521 9.624 82.2721 8.76C81.7921 7.88 81.1281 7.2 80.2801 6.72C79.4481 6.224 78.5041 5.976 77.4481 5.976C76.3921 5.976 75.4401 6.224 74.5921 6.72C73.7601 7.2 73.1041 7.88 72.6241 8.76C72.1441 9.624 71.9041 10.632 71.9041 11.784C71.9041 12.92 72.1441 13.928 72.6241 14.808C73.1041 15.688 73.7601 16.376 74.5921 16.872C75.4401 17.368 76.3921 17.616 77.4481 17.616ZM92.2536 18.072C91.0536 18.072 89.9896 17.808 89.0616 17.28C88.1336 16.736 87.3976 15.992 86.8536 15.048C86.3256 14.088 86.0616 13 86.0616 11.784C86.0616 10.552 86.3096 9.472 86.8056 8.544C87.3016 7.6 87.9816 6.864 88.8456 6.336C89.7256 5.792 90.7096 5.52 91.7976 5.52C92.8856 5.52 93.8616 5.784 94.7256 6.312C95.6056 6.824 96.2936 7.544 96.7896 8.472C97.3016 9.4 97.5576 10.464 97.5576 11.664C97.5576 11.68 97.5576 11.696 97.5576 11.712C97.5576 11.728 97.5576 11.752 97.5576 11.784H86.3256V11.328H97.2936L97.1016 11.688C97.1016 10.6 96.8696 9.624 96.4056 8.76C95.9416 7.896 95.3096 7.216 94.5096 6.72C93.7256 6.224 92.8216 5.976 91.7976 5.976C90.7896 5.976 89.8856 6.224 89.0856 6.72C88.2856 7.216 87.6536 7.896 87.1896 8.76C86.7416 9.624 86.5176 10.6 86.5176 11.688V11.784C86.5176 12.92 86.7656 13.928 87.2616 14.808C87.7576 15.688 88.4376 16.376 89.3016 16.872C90.1656 17.368 91.1496 17.616 92.2536 17.616C93.0856 17.616 93.8696 17.456 94.6056 17.136C95.3576 16.816 95.9816 16.336 96.4776 15.696L96.8136 16.032C96.2696 16.704 95.5976 17.216 94.7976 17.568C93.9976 17.904 93.1496 18.072 92.2536 18.072Z" fill="black"/>
</svg>
